<svg width="44" height="35" viewBox="0 0 44 35" fill="none" xmlns="http://www.w3.org/2000/svg">
<path fill-rule="evenodd" clip-rule="evenodd" d="M28.8929 31.5456H27.6233V33.1732C27.6233 33.5509 27.7506 33.7775 28.1401 33.7775C28.3833 33.7693 28.6204 33.6992 28.8293 33.5735L29.054 34.2457C28.762 34.4295 28.4244 34.5264 28.0802 34.5252C27.1589 34.5252 26.8368 34.0267 26.8368 33.1883V31.5456H26.1102V30.8281H26.8368V29.7329H27.6233V30.8281H28.8929V31.5456ZM35.0315 30.8885C34.7932 30.793 34.5389 30.7443 34.2825 30.745L34.275 30.7337C34.0077 30.7327 33.7429 30.7853 33.496 30.8885C33.2695 30.9803 33.0633 31.1163 32.8892 31.2888C32.7176 31.4603 32.5814 31.6644 32.4885 31.8892C32.2932 32.3735 32.2932 32.9155 32.4885 33.3998C32.5814 33.6247 32.7176 33.8288 32.8892 34.0003C33.0633 34.1727 33.2695 34.3088 33.496 34.4006C33.9898 34.5941 34.5377 34.5941 35.0315 34.4006C35.2591 34.3087 35.4665 34.1727 35.642 34.0003C35.8154 33.8295 35.9529 33.6253 36.0465 33.3998C36.2422 32.9156 36.2422 32.3734 36.0465 31.8892C35.9529 31.6638 35.8153 31.4597 35.642 31.2888C35.4665 31.1164 35.2591 30.9804 35.0315 30.8885ZM13.2562 32.1687V34.4346H12.4734V32.4293C12.4734 31.8175 12.2187 31.4776 11.6869 31.4776C11.4375 31.4654 11.1955 31.5654 11.0263 31.7506C10.857 31.9358 10.778 32.1871 10.8105 32.4368V34.4346H10.024V32.4293C10.024 31.8175 9.76181 31.4776 9.24496 31.4776C8.99471 31.4626 8.75103 31.5618 8.58117 31.7477C8.41132 31.9336 8.33326 32.1866 8.36855 32.4368V34.4346H7.58203V30.8281H8.36106V31.2737C8.59161 30.9201 8.99062 30.7161 9.40975 30.7374C9.89113 30.7166 10.3453 30.9629 10.5933 31.3794C10.8653 30.9501 11.3475 30.7041 11.8517 30.7374C12.2333 30.7148 12.6061 30.8588 12.8749 31.1328C13.1438 31.4068 13.2827 31.7842 13.2562 32.1687ZM17.6382 30.8318V32.6332L17.6307 34.427H16.8517V33.9889C16.5837 34.3376 16.1653 34.5345 15.7281 34.5176C14.6939 34.5176 13.8555 33.6723 13.8555 32.6294C13.8555 31.5866 14.6939 30.7412 15.7281 30.7412C16.1653 30.7243 16.5837 30.9212 16.8517 31.2699V30.8318H17.6382ZM14.7431 32.6332C14.7777 32.0406 15.2758 31.5845 15.8642 31.6068C16.4526 31.6291 16.9154 32.1215 16.9059 32.7151C16.8964 33.3087 16.418 33.7857 15.8292 33.7888C15.5278 33.7959 15.2373 33.6746 15.0292 33.4547C14.821 33.2347 14.7144 32.9365 14.7356 32.6332H14.7431ZM34.2825 31.5003C34.1299 31.4982 33.9785 31.5264 33.8368 31.5834C33.7033 31.6373 33.5822 31.7183 33.481 31.8213C33.3777 31.9297 33.2974 32.0582 33.245 32.1989C33.1306 32.5004 33.1306 32.8339 33.245 33.1355C33.2973 33.2762 33.3776 33.4048 33.481 33.5131C33.5821 33.6162 33.7033 33.6972 33.8368 33.751C34.1221 33.8637 34.4391 33.8637 34.7244 33.751C34.8643 33.6989 34.9919 33.6178 35.099 33.5131C35.2025 33.4049 35.2828 33.2763 35.3349 33.1355C35.4493 32.8339 35.4493 32.5004 35.3349 32.1989C35.2828 32.058 35.2025 31.9295 35.099 31.8213C34.9919 31.7165 34.8643 31.6355 34.7244 31.5834C34.5831 31.5181 34.4303 31.4822 34.275 31.4776L34.2825 31.5003ZM20.1738 30.745C21.1738 30.745 21.8705 31.5003 21.8705 32.6332C21.8705 32.7389 21.8705 32.8334 21.8592 32.9278H19.2038C19.2647 33.4662 19.7395 33.8579 20.2749 33.8114C20.654 33.8058 21.0204 33.673 21.3161 33.4338L21.6907 34.0154C21.2807 34.3597 20.7595 34.5398 20.2263 34.5214C19.192 34.536 18.3419 33.7025 18.3274 32.6596C18.3129 31.6168 19.1396 30.7596 20.1738 30.745ZM19.2075 32.316C19.2376 31.8178 19.6527 31.4326 20.1476 31.4436C20.383 31.4386 20.6108 31.528 20.7808 31.6924C20.9508 31.8567 21.0491 32.0824 21.054 32.3198L19.2075 32.316ZM24.024 31.4399C24.4187 31.4443 24.8056 31.5509 25.1476 31.7495L25.4959 31.1151C25.0561 30.8512 24.5505 30.7202 24.039 30.7374C23.1251 30.7374 22.5409 31.1755 22.5409 31.893C22.5409 32.4821 22.9753 32.8447 23.7768 32.958L24.1514 33.0108C24.5783 33.0713 24.7806 33.1846 24.7806 33.3885C24.7806 33.6679 24.4959 33.8266 23.9641 33.8266C23.5363 33.839 23.1168 33.706 22.7731 33.4489L22.3985 34.0607C22.8512 34.3796 23.3934 34.5438 23.9454 34.529C24.9753 34.529 25.5746 33.9852 25.5746 33.3507C25.5746 32.7163 25.1027 32.384 24.3236 32.2707L23.9491 32.2178C23.612 32.1725 23.3424 32.1272 23.3424 31.8628C23.3424 31.5985 23.5971 31.4399 24.024 31.4399ZM32.1401 30.8356C31.9623 30.7714 31.7748 30.7382 31.5858 30.7374L31.6008 30.7525C31.2139 30.7411 30.8517 30.9439 30.657 31.2812V30.8432H29.8855V34.4497H30.6645V32.4293C30.6645 31.8326 30.9042 31.5003 31.4136 31.5003C31.5802 31.4979 31.7456 31.5287 31.9004 31.5909L32.1401 30.8356ZM36.9716 33.9096C37.0203 33.909 37.0687 33.918 37.1139 33.9361C37.157 33.9538 37.1963 33.9794 37.23 34.0116C37.263 34.0442 37.2896 34.0826 37.3087 34.1249C37.347 34.214 37.347 34.3152 37.3087 34.4043C37.2896 34.4467 37.263 34.4851 37.23 34.5176C37.1963 34.5499 37.157 34.5755 37.1139 34.5932C37.0691 34.6131 37.0206 34.6234 36.9716 34.6234C36.8267 34.6223 36.6954 34.537 36.6345 34.4043C36.5966 34.3151 36.5966 34.2141 36.6345 34.1249C36.6536 34.0826 36.6803 34.0442 36.7132 34.0116C36.7469 33.9794 36.7863 33.9538 36.8293 33.9361C36.8687 33.9203 36.9105 33.9113 36.9529 33.9096H36.9716ZM37.0802 34.5252C37.046 34.5404 37.009 34.5481 36.9716 34.5478V34.5327C36.8971 34.5331 36.8255 34.5031 36.7731 34.4497C36.676 34.3428 36.676 34.1789 36.7731 34.072C36.7988 34.0461 36.8294 34.0255 36.863 34.0116C36.8974 33.9968 36.9343 33.9891 36.9716 33.9889C37.009 33.9888 37.046 33.9965 37.0802 34.0116C37.1642 34.0484 37.2247 34.1246 37.2419 34.2153C37.2591 34.3059 37.2309 34.3993 37.1664 34.4648C37.1417 34.4902 37.1125 34.5107 37.0802 34.5252ZM36.9941 34.0985C37.0291 34.0967 37.0635 34.1074 37.0915 34.1287C37.1147 34.1481 37.1273 34.1776 37.1252 34.208C37.1263 34.2333 37.1168 34.258 37.099 34.2759C37.0773 34.2958 37.0496 34.3078 37.0203 34.3099L37.1289 34.4346H37.0428L36.9417 34.3099H36.9079V34.4346H36.8368V34.0871L36.9941 34.0985ZM36.9117 34.2533V34.1627L36.9941 34.1853C37.0088 34.1809 37.0244 34.1809 37.039 34.1853C37.0444 34.196 37.0444 34.2086 37.039 34.2193C37.0444 34.23 37.0444 34.2426 37.039 34.2533C37.0244 34.2577 37.0088 34.2577 36.9941 34.2533H36.9117Z" fill="black"/>
<rect x="15.9688" y="3.31299" width="11.7978" height="21.3783" fill="#7673C0"/>
<path d="M16.7194 14.0041C16.715 9.8317 18.6141 5.88913 21.8692 3.31303C16.3411 -1.0676 8.40237 -0.429523 3.63226 4.77884C-1.13784 9.9872 -1.13784 18.0172 3.63226 23.2255C8.40237 28.4339 16.3411 29.072 21.8692 24.6914C18.6152 22.1161 16.7162 18.1751 16.7194 14.0041Z" fill="#EB001B"/>
<path fill-rule="evenodd" clip-rule="evenodd" d="M43.2637 21.8969V22.9409L43.1664 22.9484V22.1579L43.0203 22.8365H42.9192L42.7731 22.1579V22.9409H42.6757V21.8969H42.8143L42.9716 22.6426L43.1289 21.8969H43.2637ZM42.3986 22.1057V22.9409L42.3049 22.9708V22.1057H42.1289V21.9267H42.5746V22.1057H42.3986Z" fill="#00A1DF"/>
<path d="M43.6839 14.0041C43.6826 19.2079 40.7355 23.9544 36.0936 26.2287C31.4517 28.5031 25.9294 27.9061 21.8711 24.6914C25.1238 22.1139 27.0229 18.1735 27.0229 14.0022C27.0229 9.83091 25.1238 5.89051 21.8711 3.31304C25.9294 0.0959425 31.4532 -0.502334 36.0965 1.7723C40.7398 4.04693 43.6875 8.79512 43.6876 14.0003L43.6839 14.0041Z" fill="#00A1DF"/>
</svg>
