<svg width="44" height="35" viewBox="0 0 44 35" fill="none" xmlns="http://www.w3.org/2000/svg">
<path fill-rule="evenodd" clip-rule="evenodd" d="M41.5751 32.637V29.3817H40.826V31.2699C40.5576 30.9217 40.1395 30.725 39.7024 30.7412C38.6682 30.7412 37.8298 31.5866 37.8298 32.6294C37.8298 33.6723 38.6682 34.5176 39.7024 34.5176C40.1395 34.5339 40.5576 34.3372 40.826 33.9889V34.427H41.5751V32.637ZM18.3541 30.8319H19.635L19.6425 31.5494H18.369V33.1959C18.369 33.5584 18.5114 33.8001 18.8859 33.8001C19.129 33.792 19.3661 33.7218 19.575 33.5962L19.7998 34.2684C19.5077 34.4522 19.1702 34.549 18.826 34.5479C17.9046 34.5479 17.5825 34.0494 17.5825 33.211V31.5494H16.8559V30.8319H17.5675V29.7367H18.3541V30.8319ZM7.99823 32.1763V34.4421L7.21171 34.4572V32.4482C7.21171 31.8364 6.95703 31.4965 6.42519 31.4965C6.17574 31.4843 5.93376 31.5843 5.76455 31.7695C5.59533 31.9547 5.5163 32.206 5.54879 32.4557V34.4572H4.76227V32.4482C4.76227 31.8364 4.50009 31.4965 3.98324 31.4965C3.73339 31.4829 3.49057 31.5825 3.32104 31.768C3.1515 31.9536 3.07296 32.2058 3.10683 32.4557V34.4421H2.32031V30.8319H3.09934V31.2775C3.32989 30.9239 3.7289 30.7199 4.14803 30.7412C4.62941 30.7204 5.08354 30.9667 5.33156 31.3832C5.60359 30.9539 6.0858 30.7079 6.58999 30.7412C6.97257 30.7186 7.34631 30.863 7.61587 31.1377C7.88542 31.4124 8.02472 31.7908 7.99823 32.1763ZM26.2792 30.7412C25.8923 30.7298 25.5301 30.9326 25.3354 31.2699V30.8319H24.5638V34.4421H25.3428V32.418C25.3428 31.8213 25.5975 31.489 26.0919 31.489C26.2585 31.4867 26.424 31.5175 26.5788 31.5796L26.8185 30.8243C26.6406 30.7601 26.4531 30.7269 26.2642 30.7261L26.2792 30.7412ZM14.7735 30.7412C15.2862 30.7234 15.7932 30.8545 16.2342 31.1189L15.8896 31.7533C15.5475 31.5549 15.1607 31.4483 14.766 31.4436C14.3391 31.4436 14.0844 31.6249 14.0844 31.8666C14.0844 32.1083 14.3541 32.1763 14.6911 32.2216L15.0657 32.2745C15.8447 32.3877 16.3166 32.6672 16.3166 33.3545C16.3166 34.0418 15.7174 34.5328 14.6836 34.5328C14.1304 34.5481 13.5869 34.384 13.1331 34.0645L13.5076 33.4527C13.8513 33.7098 14.2708 33.8428 14.6986 33.8303C15.2305 33.8303 15.5151 33.6717 15.5151 33.3923C15.5151 33.1883 15.3129 33.0751 14.8859 33.0146L14.5114 32.9618C13.7099 32.8485 13.2754 32.4859 13.2754 31.8968C13.2754 31.1793 13.8672 30.7412 14.7735 30.7412ZM37.0994 30.7412C36.7125 30.7298 36.3504 30.9326 36.1556 31.2699V30.8319H35.3841V34.4421H36.1631V32.418C36.1631 31.8213 36.4178 31.489 36.9122 31.489C37.0788 31.4867 37.2442 31.5175 37.3991 31.5796L37.6388 30.8243C37.4608 30.7601 37.2734 30.7269 37.0844 30.7261L37.0994 30.7412ZM27.6033 33.999C27.2397 33.6397 27.0432 33.1424 27.0619 32.6294V32.6143C27.0432 32.1013 27.2397 31.6041 27.6033 31.2447C27.9668 30.8854 28.4638 30.6971 28.9721 30.7261C29.4398 30.7021 29.8995 30.8557 30.2605 31.1566L29.8859 31.7911C29.6166 31.584 29.2882 31.4701 28.9496 31.4663C28.3525 31.515 27.8925 32.0178 27.8925 32.6219C27.8925 33.2259 28.3525 33.7288 28.9496 33.7775C29.2882 33.7737 29.6166 33.6598 29.8859 33.4527L30.2605 34.0871C29.8995 34.388 29.4398 34.5416 28.9721 34.5176C28.4638 34.5467 27.9668 34.3584 27.6033 33.999ZM34.3578 32.6294V30.8319H33.5788V31.2699C33.3104 30.9217 32.8923 30.725 32.4552 30.7412C31.421 30.7412 30.5826 31.5866 30.5826 32.6294C30.5826 33.6723 31.421 34.5176 32.4552 34.5176C32.8923 34.5339 33.3104 34.3372 33.5788 33.9889V34.427H34.3578V32.6294ZM32.5801 31.603C31.9917 31.5808 31.4936 32.0368 31.459 32.6294C31.4391 32.9311 31.5451 33.2274 31.7513 33.4468C31.9576 33.6662 32.2453 33.7888 32.5451 33.785C33.1339 33.7819 33.6122 33.3049 33.6217 32.7113C33.6313 32.1177 33.1685 31.6253 32.5801 31.603ZM22.0582 30.7412C21.0239 30.7558 20.1973 31.613 20.2117 32.6559C20.2262 33.6987 21.0764 34.5322 22.1106 34.5176C22.6495 34.5455 23.1794 34.3706 23.5975 34.0267L23.223 33.4451C22.9272 33.6843 22.5609 33.8172 22.1818 33.8228C21.6463 33.8692 21.1715 33.4775 21.1106 32.9391H23.7698V32.637C23.7698 31.5041 23.0732 30.7488 22.0694 30.7488L22.0582 30.7412ZM22.6914 31.6924C22.5214 31.5281 22.2936 31.4386 22.0582 31.4436H22.0432C21.5426 31.4264 21.1201 31.8156 21.0919 32.3198H22.9646C22.9596 32.0824 22.8614 31.8567 22.6914 31.6924ZM43.017 33.9436C42.9746 33.9267 42.9295 33.9178 42.8839 33.9172H42.886C42.8335 33.9151 42.7812 33.9241 42.7324 33.9436C42.6894 33.9613 42.65 33.9869 42.6163 34.0192C42.5834 34.0517 42.5567 34.0901 42.5376 34.1325C42.4998 34.2217 42.4998 34.3227 42.5376 34.4119C42.5985 34.5445 42.7298 34.6298 42.8747 34.6309C42.9237 34.631 42.9722 34.6207 43.017 34.6007C43.0601 34.583 43.0994 34.5574 43.1332 34.5252C43.1661 34.4926 43.1927 34.4542 43.2118 34.4119C43.2501 34.3228 43.2501 34.2216 43.2118 34.1325C43.1927 34.0901 43.1661 34.0517 43.1332 34.0192C43.0994 33.9869 43.0601 33.9613 43.017 33.9436ZM42.878 34.5554C42.9142 34.5552 42.9501 34.5475 42.9833 34.5328C43.0156 34.5182 43.0448 34.4977 43.0695 34.4723C43.1666 34.3655 43.1666 34.2015 43.0695 34.0947C43.0448 34.0692 43.0156 34.0487 42.9833 34.0343C42.9491 34.0192 42.9121 34.0115 42.8747 34.0116C42.8374 34.0118 42.8005 34.0195 42.7661 34.0343C42.7325 34.0482 42.7019 34.0687 42.6762 34.0947C42.5791 34.2015 42.5791 34.3655 42.6762 34.4723C42.702 34.4982 42.7325 34.5188 42.7661 34.5328C42.8039 34.5492 42.8448 34.5569 42.886 34.5554H42.878ZM42.9946 34.1362C42.9666 34.115 42.9322 34.1043 42.8972 34.106L42.7399 34.1098V34.4421H42.8111V34.3175H42.8448L42.9459 34.4421H43.032L42.9234 34.3175C42.9527 34.3154 42.9804 34.3034 43.0021 34.2835C43.0199 34.2656 43.0294 34.2409 43.0283 34.2155C43.0304 34.1852 43.0178 34.1556 42.9946 34.1362ZM42.8148 34.1702V34.2609H42.8972C42.9119 34.2653 42.9275 34.2653 42.9421 34.2609C42.9475 34.2502 42.9475 34.2376 42.9421 34.2269C42.9475 34.2162 42.9475 34.2036 42.9421 34.1929C42.9275 34.1885 42.9119 34.1885 42.8972 34.1929L42.8148 34.1702ZM39.8161 31.6106C39.2277 31.5883 38.7296 32.0443 38.6949 32.637C38.6751 32.9386 38.781 33.2349 38.9873 33.4544C39.1935 33.6738 39.4813 33.7964 39.7811 33.7926C40.3699 33.7895 40.8482 33.3124 40.8577 32.7188C40.8672 32.1252 40.4044 31.6329 39.8161 31.6106ZM12.3915 32.637V30.8319H11.6125V31.2699C11.3441 30.9217 10.9259 30.725 10.4889 30.7412C9.45463 30.7412 8.61621 31.5866 8.61621 32.6294C8.61621 33.6723 9.45463 34.5176 10.4889 34.5176C10.9259 34.5339 11.3441 34.3372 11.6125 33.9889V34.427H12.3915V32.637ZM10.6137 31.6106C10.0254 31.5883 9.52726 32.0443 9.49262 32.637H9.48513C9.46513 32.94 9.5721 33.2375 9.78001 33.4572C9.98791 33.6769 10.2777 33.7985 10.5788 33.7926C11.1675 33.7895 11.6459 33.3124 11.6554 32.7188C11.6649 32.1252 11.2021 31.6329 10.6137 31.6106Z" fill="#231F20"/>
<rect x="15.9727" y="3.32056" width="11.7978" height="21.3783" fill="#FF5F00"/>
<path d="M16.7233 14.0116C16.7189 9.83926 18.618 5.8967 21.8731 3.3206C16.345 -1.06003 8.40627 -0.421955 3.63617 4.7864C-1.13393 9.99476 -1.13393 18.0248 3.63617 23.2331C8.40627 28.4415 16.345 29.0795 21.8731 24.6989C18.6191 22.1236 16.7201 18.1827 16.7233 14.0116Z" fill="#EB001B"/>
<path d="M43.6915 14.0117C43.6914 19.2168 40.7437 23.965 36.1004 26.2397C31.4571 28.5143 25.9333 27.916 21.875 24.6989C25.1277 22.1215 27.0268 18.181 27.0268 14.0098C27.0268 9.83848 25.1277 5.89808 21.875 3.3206C25.9333 0.103511 31.4571 -0.494766 36.1004 1.77986C40.7437 4.0545 43.6914 8.80269 43.6915 14.0079V14.0117Z" fill="#F79E1B"/>
<path fill-rule="evenodd" clip-rule="evenodd" d="M42.4025 22.0872V22.9707H42.3238V22.0872H42.1328V21.9044H42.5785V22.0872H42.4025ZM43.2676 21.9044V22.9707L43.189 22.9783V22.171L43.0429 22.8641H42.9418L42.7957 22.171V22.9707H42.6984V21.9044H42.8182L42.9755 22.6661L43.1328 21.9044H43.2676Z" fill="#F79E1B"/>
</svg>
