<svg width="77" height="29" viewBox="0 0 77 29" fill="none" xmlns="http://www.w3.org/2000/svg">
<path fill-rule="evenodd" clip-rule="evenodd" d="M72.582 11.6118C72.582 10.7071 73.3108 9.96936 74.1855 9.96936C75.0842 9.96936 75.7884 10.7071 75.7884 11.6118C75.7884 12.516 75.0842 13.2537 74.1855 13.2537C73.3108 13.2774 72.582 12.5397 72.582 11.6118ZM74.1855 12.8965C74.8655 12.8965 75.4001 12.3254 75.4001 11.6354C75.4001 10.9451 74.8413 10.3739 74.1855 10.3739C73.505 10.3739 72.9708 10.9451 72.9708 11.6354C72.9708 12.3254 73.505 12.8965 74.1855 12.8965ZM73.9667 12.3495H73.6267V10.8977H74.2338C74.3555 10.8977 74.5008 10.8977 74.5984 10.9687C74.7196 11.0402 74.7684 11.1831 74.7684 11.326C74.7684 11.4925 74.6713 11.6354 74.5255 11.6828L74.7925 12.3254H74.4279L74.2096 11.7542H73.9667V12.3495ZM73.9667 11.5403H74.1608C74.2338 11.5403 74.3067 11.5403 74.3555 11.5167C74.4038 11.4925 74.4279 11.4211 74.4279 11.3496C74.4279 11.3023 74.4038 11.2309 74.3555 11.2072C74.3067 11.1831 74.2096 11.1831 74.1608 11.1831H73.9908L73.9667 11.5403Z" fill="#EB001B"/>
<path fill-rule="evenodd" clip-rule="evenodd" d="M51.7386 1.54763L51.3488 4.12484C50.5037 3.66628 49.8752 3.49129 49.2037 3.49129C47.4274 3.49129 46.1705 5.32595 46.1705 7.9253C46.1705 9.7161 47.0156 10.8082 48.4021 10.8082C48.9871 10.8082 49.637 10.6115 50.4386 10.1964L50.0268 12.9047C49.1387 13.167 48.5753 13.2543 47.9038 13.2543C45.3258 13.2543 43.7227 11.2885 43.7227 8.14329C43.7227 3.90642 45.9323 0.935791 49.1171 0.935791C49.5285 0.935791 49.8968 0.979646 50.2004 1.06693L51.1967 1.32921C51.4569 1.4382 51.5219 1.46034 51.7386 1.54763Z" fill="#EB001B"/>
<path fill-rule="evenodd" clip-rule="evenodd" d="M43.6395 3.4215C43.5757 3.39954 43.4907 3.39954 43.4058 3.39954C42.6405 3.39954 42.1942 3.81909 41.4716 4.99031L41.6842 3.50981H39.5585L38.1133 13.2543H40.4726C41.3224 7.28839 41.535 6.27181 42.6616 6.27181C42.7254 6.27181 42.7466 6.27181 42.8315 6.27181C43.0441 5.10102 43.3204 4.23908 43.7244 3.44347L43.6395 3.4215Z" fill="#EB001B"/>
<path fill-rule="evenodd" clip-rule="evenodd" d="M29.7691 13.741C29.1041 13.9639 28.5722 14.0755 28.0178 14.0755C26.7769 14.0755 26.0898 13.3175 26.0898 11.9141C26.0898 11.6465 26.1119 11.3347 26.156 11.0228L26.3111 10.0646L26.4221 9.28487L27.4859 2.57825H29.9242L29.636 4.02643H30.8994L30.5447 6.41067L29.3033 6.41023L28.6608 10.5102C28.6387 10.6883 28.6163 10.8221 28.6163 10.9111C28.6163 11.4237 28.8824 11.6465 29.4588 11.6465C29.747 11.6465 29.9462 11.6244 30.1234 11.5575L29.7691 13.741Z" fill="#EB001B"/>
<path fill-rule="evenodd" clip-rule="evenodd" d="M20.5377 6.60547C20.5377 7.81058 21.0845 8.62811 22.3038 9.25226C23.2289 9.72541 23.3973 9.876 23.3973 10.3064C23.3973 10.8873 22.9768 11.1671 22.0727 11.1671C21.3788 11.1671 20.748 11.0597 19.9914 10.7799L19.6758 12.9746L19.7811 12.9959L20.2016 13.0824C20.3488 13.1037 20.5377 13.1465 20.8111 13.1683C21.3579 13.2111 21.7993 13.2543 22.0936 13.2543C24.5327 13.2543 25.668 12.243 25.668 10.0912C25.668 8.80008 25.2053 8.02576 24.0277 7.44481C23.0608 6.97124 22.9555 6.86386 22.9555 6.41168C22.9555 5.89532 23.3342 5.63736 24.0908 5.63736C24.5536 5.63736 25.163 5.70195 25.752 5.78794L26.0885 3.59333C25.4786 3.48553 24.5745 3.39954 24.049 3.39954C21.421 3.39954 20.5168 4.84122 20.5377 6.60547Z" fill="#EB001B"/>
<path fill-rule="evenodd" clip-rule="evenodd" d="M70.8325 13.12H68.623L68.728 12.1551C68.0966 12.9179 67.4234 13.2543 66.5816 13.2543C64.8771 13.2543 63.7617 11.6166 63.7617 9.14826C63.7617 5.84972 65.4876 3.06775 67.5498 3.06775C68.4548 3.06775 69.128 3.4938 69.7802 4.41368L70.2852 0.935791H72.5792L70.8325 13.12ZM67.4025 10.8087C68.4966 10.8087 69.2543 9.44002 69.2543 7.46553C69.2543 6.20883 68.8125 5.51334 68.0125 5.51334C66.9603 5.51334 66.203 6.90476 66.203 8.8342C66.203 10.1355 66.6026 10.8087 67.4025 10.8087Z" fill="#EB001B"/>
<path fill-rule="evenodd" clip-rule="evenodd" d="M37.269 12.8697C36.4671 13.126 35.708 13.2543 34.8642 13.2543C32.2694 13.2543 30.8984 11.8007 30.8984 9.02186C30.8984 5.77249 32.628 3.39954 34.9694 3.39954C36.889 3.39954 38.1128 4.74604 38.1128 6.84103C38.1128 7.52532 38.0281 8.2092 37.8171 9.17147H33.1766C33.1556 9.32108 33.1556 9.38526 33.1556 9.47069C33.1556 10.5822 33.8518 11.1381 35.2018 11.1381C36.0242 11.1381 36.7837 10.9456 37.6275 10.5396L37.269 12.8697ZM35.9609 7.24735C35.9819 7.05482 35.9819 6.88395 35.9819 6.77685C35.9819 6.00753 35.5813 5.55828 34.8851 5.55828C34.147 5.55828 33.6194 6.15714 33.4085 7.24735H35.9609Z" fill="#EB001B"/>
<path fill-rule="evenodd" clip-rule="evenodd" d="M9.83558 13.2543H7.50188L8.8385 3.77671L5.82615 13.2543H4.23478L4.04413 3.84495L2.62274 13.2543H0.4375L2.26211 0.935791H5.63508L5.71986 8.57243L8.01097 0.935791H11.6598L9.83558 13.2543Z" fill="#EB001B"/>
<path fill-rule="evenodd" clip-rule="evenodd" d="M16.366 8.88607C16.1174 8.86468 16.0136 8.84329 15.8479 8.84329C14.5417 8.84329 13.8991 9.33825 13.8991 10.285C13.8991 10.8659 14.2309 11.2531 14.7284 11.2531C15.6405 11.2531 16.3248 10.285 16.366 8.88607ZM18.0246 13.1037H16.1174L16.1587 12.1138C15.5783 12.91 14.8112 13.2543 13.754 13.2543C12.5101 13.2543 11.6602 12.1998 11.6602 10.6721C11.6602 8.34833 13.1526 7.01444 15.6818 7.01444C15.9513 7.01444 16.2831 7.03584 16.6149 7.07904C16.6772 6.75606 16.6978 6.62686 16.6978 6.45488C16.6978 5.83073 16.3037 5.59415 15.2259 5.59415C14.5833 5.59415 13.8369 5.70195 13.3188 5.87393L13.0282 5.98131L12.8213 6.04591L13.132 3.91589C14.2721 3.55012 15.0392 3.39954 15.8685 3.39954C17.8379 3.39954 18.8745 4.36765 18.8745 6.1751C18.8745 6.64867 18.8329 6.99263 18.6878 8.06855L18.2319 11.4469L18.149 12.0492L18.0868 12.5228L18.0452 12.8667L18.0246 13.1037Z" fill="#EB001B"/>
<path fill-rule="evenodd" clip-rule="evenodd" d="M55.6704 8.89554C55.4411 8.87419 55.3159 8.85284 55.1493 8.85284C53.8356 8.85284 53.1686 9.34673 53.1686 10.2914C53.1686 10.8711 53.5023 11.2574 54.0026 11.2574C54.9408 11.2574 55.6289 10.2914 55.6704 8.89554ZM57.3385 13.1041H55.4204L55.4618 12.1163C54.8782 12.9107 54.1067 13.2543 53.0434 13.2543C51.7923 13.2543 50.9375 12.2021 50.9375 10.6777C50.9375 8.35895 52.439 7.02796 54.9826 7.02796C55.2326 7.02796 55.587 7.0493 55.9207 7.09242C55.9833 6.77013 56.0041 6.64122 56.0041 6.46961C56.0041 5.84681 55.6078 5.61074 54.5237 5.61074C53.8775 5.61074 53.1267 5.71831 52.6056 5.88992L52.2719 5.97572L52.0634 6.04018L52.3764 3.91477C53.523 3.5498 54.2945 3.39954 55.1285 3.39954C57.1092 3.39954 58.1518 4.36555 58.1518 6.16909C58.1518 6.64122 58.11 6.98485 57.964 8.05843L57.4844 11.4077L57.4218 12.0087L57.3592 12.4813L57.3178 12.8036L57.3385 13.1041Z" fill="#EB001B"/>
<path fill-rule="evenodd" clip-rule="evenodd" d="M64.4793 3.4215C64.4155 3.39954 64.3306 3.39954 64.2456 3.39954C63.4803 3.39954 63.0341 3.81909 62.311 4.99031L62.5236 3.50981H60.3984L58.9531 13.2543H61.3124C62.1623 7.28839 62.3748 6.27181 63.5015 6.27181C63.5653 6.27181 63.5653 6.27181 63.6718 6.27181C63.8839 5.10102 64.1818 4.23908 64.5643 3.44347L64.4793 3.4215Z" fill="#EB001B"/>
<path fill-rule="evenodd" clip-rule="evenodd" d="M54.0787 23.2049C54.0787 25.3381 53.3768 26.5964 52.2675 26.5964C51.4522 26.6176 50.9768 25.7644 50.9768 24.506C50.9768 23.0128 51.7012 21.3066 52.8334 21.3066C53.7617 21.3066 54.0787 22.2235 54.0787 23.2049ZM56.5472 23.2261C56.5472 20.8584 55.3015 19.0029 52.9689 19.0029C50.2745 19.0029 48.5312 21.2426 48.5312 24.5489C48.5312 26.9162 49.5726 28.8577 52.1086 28.8577C54.6676 28.8577 56.5472 27.1512 56.5472 23.2261Z" fill="#F79E1B"/>
<path fill-rule="evenodd" clip-rule="evenodd" d="M49.3354 17.1506L48.982 19.7283C48.2127 19.2693 47.6721 19.0948 47.069 19.0948C45.4685 19.0948 44.3458 20.9295 44.3458 23.5285C44.3458 25.3194 45.094 26.4115 46.3415 26.4115C46.8821 26.4115 47.4642 26.2152 48.171 25.8001L47.7969 28.5085C47.0066 28.7704 46.487 28.8577 45.8839 28.8577C43.5765 28.8577 42.1211 26.8922 42.1211 23.7469C42.1211 19.5095 44.1168 16.5392 46.9652 16.5392C47.3393 16.5392 47.6514 16.583 47.9217 16.6703L48.7947 16.9326C49.0858 17.0199 49.1482 17.0416 49.3354 17.1506Z" fill="#F79E1B"/>
<path fill-rule="evenodd" clip-rule="evenodd" d="M34.813 19.0249C34.7445 19.0029 34.6533 19.0029 34.5622 19.0029C33.7867 19.0029 33.3531 19.4229 32.6235 20.5937L32.8516 19.1132H30.7301L29.293 28.8577H31.6425C32.4865 22.8918 32.7146 21.8756 33.832 21.8756C33.9005 21.8756 33.9005 21.8756 34.0148 21.8976C34.2198 20.7264 34.5164 19.8649 34.9041 19.0693L34.813 19.0249Z" fill="#F79E1B"/>
<path fill-rule="evenodd" clip-rule="evenodd" d="M64.4146 28.7227H62.2102L62.3225 27.756C61.6928 28.5203 61.0179 28.8577 60.1633 28.8577C58.4763 28.8577 57.3516 27.2166 57.3516 24.7442C57.3516 21.4397 59.0837 18.6522 61.1306 18.6522C62.03 18.6522 62.7277 19.0795 63.3574 20.0234L63.8748 16.5392H66.1691L64.4146 28.7227ZM60.9732 26.3849C62.0752 26.3849 62.8176 25.0137 62.8176 23.0356C62.8176 21.7771 62.39 21.1027 61.5805 21.1027C60.5233 21.1027 59.7809 22.4738 59.7809 24.4291C59.7809 25.7332 60.1856 26.3849 60.9732 26.3849Z" fill="#F79E1B"/>
<path fill-rule="evenodd" clip-rule="evenodd" d="M14.0074 28.4727C13.216 28.7294 12.447 28.8577 11.6102 28.8577C9.00897 28.8577 7.65234 27.4042 7.65234 24.625C7.65234 21.397 9.39387 19.0029 11.7231 19.0029C13.6454 19.0029 14.8667 20.3281 14.8667 22.4447C14.8667 23.129 14.7763 23.8128 14.5726 24.7746H9.93661C9.91368 24.9242 9.91368 24.9884 9.91368 25.0738C9.91368 26.164 10.6151 26.7199 11.9722 26.7199C12.8086 26.7199 13.555 26.5278 14.3918 26.1215L14.0074 28.4727ZM12.6957 22.8506C12.6957 22.6585 12.7182 22.4876 12.7182 22.3805C12.7182 21.6108 12.3113 21.162 11.6102 21.162C10.8638 21.162 10.3436 21.7604 10.1174 22.8506H12.6957Z" fill="#F79E1B"/>
<path fill-rule="evenodd" clip-rule="evenodd" d="M40.4628 28.4727C39.6739 28.7294 38.9074 28.8577 38.0732 28.8577C35.4578 28.8577 34.1055 27.4042 34.1055 24.625C34.1055 21.397 35.841 19.0029 38.1633 19.0029C40.0795 19.0029 41.3198 20.3281 41.3198 22.4447C41.3198 23.129 41.2297 23.8128 41.0266 24.7746H36.4049C36.3821 24.9242 36.3821 24.9884 36.3821 25.0738C36.3821 26.164 37.0813 26.7199 38.4341 26.7199C39.2682 26.7199 40.0123 26.5278 40.846 26.1215L40.4628 28.4727ZM39.1553 22.8506C39.1777 22.6585 39.1777 22.4876 39.1777 22.3805C39.1777 21.6108 38.772 21.162 38.0732 21.162C37.3292 21.162 36.8106 21.7604 36.5851 22.8506H39.1553Z" fill="#F79E1B"/>
<path fill-rule="evenodd" clip-rule="evenodd" d="M72.5257 28.4727C71.714 28.7294 70.9475 28.8577 70.1357 28.8577C67.5432 28.8577 66.168 27.4042 66.168 24.625C66.168 21.397 67.904 19.0029 70.2487 19.0029C72.1649 19.0029 73.3823 20.3281 73.3823 22.4447C73.3823 23.129 73.2922 23.8128 73.0891 24.7746H68.4674C68.445 24.9242 68.445 24.9884 68.445 25.0738C68.445 26.164 69.1438 26.7199 70.4966 26.7199C71.3307 26.7199 72.0748 26.5278 72.909 26.1215L72.5257 28.4727ZM71.2178 22.8506C71.2178 22.6585 71.2406 22.4876 71.2406 22.3805C71.2406 21.6108 70.8345 21.162 70.1357 21.162C69.3917 21.162 68.8731 21.7604 68.6476 22.8506H71.2178Z" fill="#F79E1B"/>
<path fill-rule="evenodd" clip-rule="evenodd" d="M7.09209 19.4251C6.67744 19.1236 6.09709 18.8868 5.30942 18.8868C4.4385 18.8868 3.75429 19.0804 3.75429 20.0279C3.75429 21.7081 6.90578 21.0834 6.90578 24.7014C6.90578 27.9962 4.83254 28.8577 2.946 28.8577C2.11671 28.8577 1.14232 28.5777 0.4375 28.233L0.955609 25.8211C1.39127 26.2304 2.24118 26.5104 2.96662 26.5104C3.65083 26.5104 4.68745 26.3165 4.68745 25.0889C4.68745 23.1724 1.53636 23.8832 1.53636 20.5233C1.53636 17.4439 3.38126 16.5392 5.16434 16.5392C6.15933 16.5392 7.1131 16.6899 7.65182 17.0778L7.09209 19.4251Z" fill="#F79E1B"/>
<path fill-rule="evenodd" clip-rule="evenodd" d="M20.0062 28.4915C19.5525 28.7067 18.9266 28.8577 18.0195 28.8577C16.0765 28.8577 14.8672 26.9211 14.8672 24.5541C14.8672 21.4555 16.6161 19.0029 19.1854 19.0029C19.7469 19.0029 20.6107 19.2395 21.2799 19.6267L20.7832 21.8863C20.3084 21.5633 19.8117 21.3695 19.2936 21.3695C18.1058 21.3695 17.2424 22.4673 17.2424 24.4035C17.2424 25.5226 17.8684 26.4475 18.8403 26.4475C19.4232 26.4475 19.8332 26.3187 20.3299 26.039L20.0062 28.4915Z" fill="#F79E1B"/>
<path fill-rule="evenodd" clip-rule="evenodd" d="M29.0362 26.1238C28.9281 26.9619 28.8195 27.7776 28.7545 28.6372H26.6099L26.783 27.0719H26.7615C26.09 28.1305 25.3965 28.8577 24.1616 28.8577C22.8186 28.8577 22.082 27.4029 22.082 25.529C22.082 24.8675 22.1251 24.5146 22.2552 23.5003L22.8621 19.0029H25.2664L24.6169 23.5222C24.5518 24.0075 24.4653 24.4927 24.4653 24.9994C24.4653 25.5728 24.725 26.1461 25.375 26.1019C26.3501 26.1019 26.9347 24.8894 27.1082 23.4565L27.7798 19.0029H30.0979L29.0362 26.1238Z" fill="#F79E1B"/>
<path fill-rule="evenodd" clip-rule="evenodd" d="M74.3941 28.0365H73.9747V26.6891H73.3828V26.394H74.986V26.6891H74.3941V28.0365Z" fill="#F79E1B"/>
<path fill-rule="evenodd" clip-rule="evenodd" d="M76.5876 28.0365H76.2586V26.6707L75.9505 28.0365H75.6215L75.3133 26.6707V28.0365H74.9844V26.394H75.4981L75.7862 27.6857H75.8066L76.0943 26.394H76.5876V28.0365Z" fill="#F79E1B"/>
</svg>
