<svg width="90" height="16" viewBox="0 0 90 16" fill="none" xmlns="http://www.w3.org/2000/svg">
<mask id="mask0_1401_271" style="mask-type:luminance" maskUnits="userSpaceOnUse" x="0" y="0" width="90" height="16">
<path fill-rule="evenodd" clip-rule="evenodd" d="M0.75 0.901978H89.7194V15.9369H0.75V0.901978Z" fill="white"/>
</mask>
<g mask="url(#mask0_1401_271)">
<path fill-rule="evenodd" clip-rule="evenodd" d="M83.9418 7.46372C83.4347 7.81018 82.7009 7.97883 81.6961 7.97883H80.6994L81.464 3.94425H82.1965C83.0307 3.94425 83.6387 4.07499 84.0588 4.3417C84.386 4.55088 84.7759 4.96466 84.7759 5.74713C84.7746 6.69367 84.3211 7.20225 83.9404 7.46372H83.9418ZM24.5035 12.5285H16.7946L17.293 9.89022H22.1281L22.6766 6.9192H17.887L18.3486 4.30901H26.0468L24.5028 12.5285H24.5035ZM88.0939 2.04463C86.9601 1.28504 85.2435 0.901978 82.9946 0.901978H77.1045L74.9144 12.5285H67.1981L67.6938 9.89022H72.3423L72.8928 6.9277L68.247 6.93423L68.7447 4.30836H73.5324L74.1699 0.902631H64.4461L62.367 11.9304H58.7989L60.892 0.901978H55.8087L53.7303 11.9304H50.2545L52.3489 0.901978H47.269L45.0762 12.5285H37.3044L37.7954 9.89022H42.4626L43.0138 6.94469L38.3513 6.94012L38.8463 4.30901H43.6881L44.3209 0.901978H14.0212L12.296 10.1144L8.8616 0.901978H3.58833L0.75 15.9369H5.78647L7.50365 6.47011L10.837 15.9369H28.8864L31.0812 4.3077H33.9042L31.7094 15.9369H79.2016L80.579 8.59591L82.8059 15.9369H87.8451L85.5365 9.93859L86.065 9.82747C87.2276 9.58364 88.1354 9.06003 88.7669 8.27495C89.3977 7.48268 89.7194 6.46554 89.7194 5.24379C89.7194 3.82136 89.187 2.7748 88.0919 2.04397L88.0939 2.04463Z" fill="#83BA3B"/>
</g>
</svg>
