<svg width="62" height="21" viewBox="0 0 62 21" fill="none" xmlns="http://www.w3.org/2000/svg">
<path fill-rule="evenodd" clip-rule="evenodd" d="M44.7304 5.41773C46.1175 5.41773 47.2418 4.32053 47.2418 2.96754C47.2418 1.61376 46.1175 0.515503 44.7304 0.515503C43.3449 0.515503 42.2212 1.61376 42.2212 2.96754C42.2212 4.32053 43.3449 5.41773 44.7304 5.41773ZM25.4967 6.74095C25.4899 6.75754 25.4806 6.78113 25.4688 6.81135L25.4688 6.81137L25.4688 6.81138L25.4688 6.8114C25.2818 7.28772 24.45 9.4075 22.5951 11.5997V1.63114L17.3393 2.64536V20.7145H22.5951V15.1292C24.1174 17.3584 24.8691 20.7145 24.8691 20.7145H31.1645C30.5418 18.1869 27.8178 13.5262 27.8178 13.5262C30.2625 10.4999 31.3364 7.2752 31.5071 6.74095H25.4967ZM32.2167 12.8613C32.2167 8.76201 34.6064 6.69986 39.314 6.55234C39.314 6.55234 40.1628 6.5202 40.6649 6.62425V10.7033C37.6817 10.8036 37.3525 11.8558 37.3525 14.3104V20.7145H32.2167V12.8613ZM8.52471 8.73067L8.5222 8.7305C7.87709 8.68906 6.39054 8.59356 6.39054 7.28521C6.39054 5.70435 8.53631 5.70435 9.34115 5.70435C10.7563 5.70435 12.5891 6.11267 13.8979 6.49491C13.8979 6.49491 14.628 6.74622 15.2494 7.0036L15.3071 7.01888V2.68935L15.2278 2.66643C13.6832 2.13878 11.887 1.63114 8.55709 1.63114C2.8156 1.63114 0.78125 4.89692 0.78125 7.69458C0.78125 9.30732 1.48922 13.1029 8.06469 13.5407L8.07149 13.5411C8.63403 13.5748 10.1015 13.6629 10.1015 15.0112C10.1015 16.1289 8.8903 16.788 6.85326 16.788C4.62087 16.788 2.4554 16.2322 1.14009 15.7051V20.1642C3.10915 20.6681 5.32885 20.92 7.93033 20.92C13.5442 20.92 16.0585 17.8302 16.0585 14.7678C16.0585 11.2955 13.245 9.03941 8.52471 8.73067ZM47.2787 20.7145H42.1845V6.75676H47.2787V20.7145ZM56.8709 2.52102V20.7145H61.9659V1.63114L56.8709 2.52102ZM54.5268 1.63114L49.4366 2.52102V20.7145H54.5268V1.63114Z" fill="url(#paint0_linear_1401_262)"/>
<defs>
<linearGradient id="paint0_linear_1401_262" x1="-244.901" y1="-71.4056" x2="-241.336" y2="104.073" gradientUnits="userSpaceOnUse">
<stop stop-color="#6B195F"/>
<stop offset="1" stop-color="#4C255B"/>
</linearGradient>
</defs>
</svg>
