<svg width="61" height="21" viewBox="0 0 61 21" fill="none" xmlns="http://www.w3.org/2000/svg">
<path fill-rule="evenodd" clip-rule="evenodd" d="M29.7619 0.876453L25.7454 20.6114H20.8878L24.9059 0.876453H29.7619ZM50.1966 13.6188L52.7534 6.2088L54.2253 13.6188H50.1966ZM55.6164 20.6114H60.1087L56.1874 0.876453H52.0419C51.1094 0.876453 50.3232 1.44596 49.9742 2.32376L42.6863 20.6114H47.7853L48.7985 17.663H55.0295L55.6164 20.6114ZM42.9387 14.1675C42.9605 8.9595 36.0869 8.67197 36.1342 6.34481C36.1492 5.63724 36.7904 4.88492 38.1943 4.69216C38.8892 4.59681 40.8085 4.5228 42.9827 5.57494L43.8362 1.39038C42.6666 0.944313 41.1636 0.515503 39.2919 0.515503C34.4915 0.515503 31.1121 3.19835 31.0851 7.03863C31.0531 9.88118 33.4967 11.4651 35.3378 12.4102C37.2293 13.3772 37.8637 13.9976 37.8568 14.8625C37.8426 16.1873 36.3474 16.7711 34.9496 16.7939C32.5077 16.834 31.0904 16.1001 29.9611 15.547L29.0817 19.8716C30.2155 20.4192 32.3104 20.8966 34.4829 20.92C39.5857 20.92 42.9229 18.2717 42.9387 14.1675ZM22.8215 0.876453L14.952 20.6114H9.81803L5.94547 4.86152C5.71032 3.89187 5.50634 3.5359 4.79144 3.12815C3.62405 2.46153 1.69612 1.83674 0 1.44859L0.114373 0.876453H8.37959C9.43233 0.876453 10.3802 1.61268 10.6192 2.88829L12.6646 14.3085L17.7198 0.876453H22.8215Z" fill="#191F71"/>
<mask id="mask0_1401_139" style="mask-type:luminance" maskUnits="userSpaceOnUse" x="0" y="0" width="61" height="21">
<path fill-rule="evenodd" clip-rule="evenodd" d="M29.7619 0.876453L25.7454 20.6114H20.8878L24.9059 0.876453H29.7619ZM50.1966 13.6188L52.7534 6.2088L54.2253 13.6188H50.1966ZM55.6164 20.6114H60.1087L56.1874 0.876453H52.0419C51.1094 0.876453 50.3232 1.44596 49.9742 2.32376L42.6863 20.6114H47.7853L48.7985 17.663H55.0295L55.6164 20.6114ZM42.9387 14.1675C42.9605 8.9595 36.0869 8.67197 36.1342 6.34481C36.1492 5.63724 36.7904 4.88492 38.1943 4.69216C38.8892 4.59681 40.8085 4.5228 42.9827 5.57494L43.8362 1.39038C42.6666 0.944313 41.1636 0.515503 39.2919 0.515503C34.4915 0.515503 31.1121 3.19835 31.0851 7.03863C31.0531 9.88118 33.4967 11.4651 35.3378 12.4102C37.2293 13.3772 37.8637 13.9976 37.8568 14.8625C37.8426 16.1873 36.3474 16.7711 34.9496 16.7939C32.5077 16.834 31.0904 16.1001 29.9611 15.547L29.0817 19.8716C30.2155 20.4192 32.3104 20.8966 34.4829 20.92C39.5857 20.92 42.9229 18.2717 42.9387 14.1675ZM22.8215 0.876453L14.952 20.6114H9.81803L5.94547 4.86152C5.71032 3.89187 5.50634 3.5359 4.79144 3.12815C3.62405 2.46153 1.69612 1.83674 0 1.44859L0.114373 0.876453H8.37959C9.43233 0.876453 10.3802 1.61268 10.6192 2.88829L12.6646 14.3085L17.7198 0.876453H22.8215Z" fill="white"/>
</mask>
<g mask="url(#mask0_1401_139)">
</g>
</svg>
