<svg width="69" height="35" viewBox="0 0 69 35" fill="none" xmlns="http://www.w3.org/2000/svg">
<path fill-rule="evenodd" clip-rule="evenodd" d="M3.54614 12.2787L0 1.05737H1.51615L3.21013 6.58599C3.67645 8.09949 4.08048 9.46494 4.36978 10.7805H4.40338C4.70989 9.48017 5.16145 8.0665 5.64416 6.60038L7.48321 1.05737H8.98214L5.09507 12.2787H3.54614Z" fill="#191F71"/>
<path fill-rule="evenodd" clip-rule="evenodd" d="M14.5121 7.29559C14.5301 6.36245 14.1405 4.91194 12.5391 4.91194C11.0997 4.91194 10.4692 6.27947 10.3549 7.29559H14.5121ZM10.3393 8.34558C10.3722 10.3296 11.5995 11.145 13.025 11.145C14.0451 11.145 14.6576 10.9612 15.1935 10.7275L15.4369 11.7784C14.9338 12.0112 14.078 12.2788 12.8318 12.2788C10.4199 12.2788 8.98047 10.6446 8.98047 8.21095C8.98047 5.77818 10.3722 3.86279 12.6509 3.86279C15.2083 3.86279 15.8898 6.1804 15.8898 7.66139C15.8898 7.96115 15.8561 8.19401 15.8397 8.34558H10.3393Z" fill="#191F71"/>
<path fill-rule="evenodd" clip-rule="evenodd" d="M16.6497 6.61601C16.6497 5.64846 16.6323 4.8148 16.582 4.04853H17.8966L17.9468 5.66401H18.0145C18.3899 4.55995 19.2943 3.86279 20.3028 3.86279C20.471 3.86279 20.5941 3.88007 20.7276 3.91376V5.32536C20.5742 5.2908 20.4215 5.27353 20.2152 5.27353C19.1582 5.27353 18.409 6.07263 18.2035 7.19396C18.168 7.39956 18.1333 7.63713 18.1333 7.89284V12.2788H16.6497V6.61601Z" fill="#191F71"/>
<mask id="mask0_1401_152" style="mask-type:luminance" maskUnits="userSpaceOnUse" x="0" y="0" width="69" height="35">
<path fill-rule="evenodd" clip-rule="evenodd" d="M0 34.7215H68.4025V0.356079H0V34.7215Z" fill="white"/>
</mask>
<g mask="url(#mask0_1401_152)">
<path fill-rule="evenodd" clip-rule="evenodd" d="M21.6265 12.2787H23.3019V4.23173H21.6265V12.2787ZM23.4902 1.97073C23.5085 2.47008 23.0904 2.86972 22.427 2.86972C21.837 2.86972 21.418 2.47008 21.418 1.97073C21.418 1.45617 21.8544 1.05737 22.4647 1.05737C23.0904 1.05737 23.4902 1.45617 23.4902 1.97073Z" fill="#191F71"/>
<path fill-rule="evenodd" clip-rule="evenodd" d="M24.6785 12.2788V5.38178H23.4922V4.27429H24.6785V3.89365C24.6785 2.7702 24.9407 1.74506 25.6548 1.09973C26.2298 0.57035 26.9961 0.356079 27.712 0.356079C28.2542 0.356079 28.722 0.471197 29.0197 0.587156L28.8115 1.71061C28.5829 1.61145 28.2701 1.52995 27.8334 1.52995C26.5275 1.52995 26.197 2.62147 26.197 3.84491V4.27429H28.2347V5.38178H26.197V12.2788H24.6785Z" fill="#191F71"/>
<path fill-rule="evenodd" clip-rule="evenodd" d="M29.9215 12.2787H31.5936V4.23173H29.9215V12.2787ZM31.783 1.97073C31.8042 2.47008 31.3821 2.86972 30.7175 2.86972C30.1302 2.86972 29.7109 2.47008 29.7109 1.97073C29.7109 1.45617 30.1495 1.05737 30.7571 1.05737C31.3821 1.05737 31.783 1.45617 31.783 1.97073Z" fill="#191F71"/>
<path fill-rule="evenodd" clip-rule="evenodd" d="M38.0062 7.29559C38.021 6.36245 37.6337 4.91194 36.0318 4.91194C34.5927 4.91194 33.9619 6.27947 33.846 7.29559H38.0062ZM33.8312 8.34558C33.8649 10.3296 35.0926 11.145 36.5178 11.145C37.5383 11.145 38.1518 10.9612 38.6871 10.7275L38.9305 11.7784C38.4281 12.0112 37.5679 12.2788 36.3245 12.2788C33.9118 12.2788 32.4727 10.6446 32.4727 8.21095C32.4727 5.77818 33.8649 3.86279 36.1436 3.86279C38.7027 3.86279 39.382 6.1804 39.382 7.66139C39.382 7.96115 39.3499 8.19401 39.3318 8.34558H33.8312Z" fill="#191F71"/>
<path fill-rule="evenodd" clip-rule="evenodd" d="M46.1438 7.35154C46.1438 7.16917 46.1278 6.92041 46.0779 6.73805C45.8615 5.81193 45.0611 5.05221 43.9666 5.05221C42.4511 5.05221 41.5543 6.375 41.5543 8.14571C41.5543 9.76684 42.3505 11.1047 43.9336 11.1047C44.9123 11.1047 45.8116 10.461 46.0779 9.36681C46.1278 9.17016 46.1438 8.97182 46.1438 8.74071V7.35154ZM47.6094 0.356079V10.029C47.6094 10.7409 47.6246 11.5502 47.6745 12.0981H46.3619L46.2943 10.7089H46.2596C45.8116 11.6014 44.8312 12.2788 43.5161 12.2788C41.5695 12.2788 40.0744 10.6417 40.0744 8.20958C40.0566 5.54721 41.7217 3.91096 43.6843 3.91096C44.9123 3.91096 45.7449 4.49083 46.11 5.13457H46.1438V0.356079H47.6094Z" fill="#191F71"/>
<path fill-rule="evenodd" clip-rule="evenodd" d="M54.7006 8.88946C54.7006 9.07015 54.7332 9.25251 54.7674 9.41807C55.0466 10.4265 55.883 11.1216 56.9368 11.1216C58.4501 11.1216 59.3535 9.88113 59.3535 8.04571C59.3535 6.44307 58.5312 5.06902 56.9869 5.06902C56.0017 5.06902 55.08 5.74638 54.7825 6.85486C54.7482 7.02042 54.7006 7.21792 54.7006 7.44902V8.88946ZM53.2031 12.0981C53.2366 11.5502 53.2683 10.7409 53.2683 10.029V0.356079H54.7006V5.38333H54.7332C55.2429 4.49083 56.163 3.91096 57.4474 3.91096C59.422 3.91096 60.8175 5.5657 60.8033 7.99528C60.8033 10.856 59.0092 12.2788 57.2334 12.2788C56.0811 12.2788 55.161 11.8325 54.5686 10.7753H54.5209L54.4524 12.0981H53.2031Z" fill="#191F71"/>
<path fill-rule="evenodd" clip-rule="evenodd" d="M62.4049 4.56409L64.1744 9.40156C64.3586 9.94202 64.5606 10.5847 64.6913 11.0753H64.7244C64.8772 10.5847 65.0427 9.95749 65.2447 9.36633L66.8462 4.56409H68.4011L66.1952 10.3983C65.1445 13.2054 64.4248 14.6429 63.4233 15.5219C62.7062 16.1637 61.9864 16.4163 61.6198 16.4868L61.2523 15.234C61.6198 15.1163 62.1027 14.8792 62.5381 14.5063C62.9387 14.1849 63.4386 13.6118 63.7747 12.8497C63.8409 12.6976 63.891 12.5807 63.891 12.4957C63.891 12.4106 63.8579 12.292 63.79 12.1064L60.8008 4.56409H62.4049Z" fill="#191F71"/>
<path fill-rule="evenodd" clip-rule="evenodd" d="M24.5332 17.8894L20.0954 29.3467L18.2991 19.6059C18.0928 18.5194 17.2602 17.8894 16.3346 17.8894H9.07852L8.98047 18.3761C10.4682 18.711 12.1605 19.2409 13.1859 19.8061C13.8131 20.1582 13.9923 20.462 14.1952 21.2896L17.5992 34.7215H22.108L29.0176 17.8894H24.5332Z" fill="#191F71"/>
<path fill-rule="evenodd" clip-rule="evenodd" d="M30.3869 17.8894L26.9453 34.7215H31.1098L34.5456 17.8894H30.3869Z" fill="#191F71"/>
<path fill-rule="evenodd" clip-rule="evenodd" d="M40.1289 22.9023C40.1418 22.2947 40.714 21.6489 41.9622 21.4776C42.585 21.3976 44.2881 21.3368 46.2259 22.2365L46.9832 18.6448C45.9458 18.2614 44.6025 17.8894 42.9414 17.8894C38.6666 17.8894 35.6648 20.1981 35.6356 23.5003C35.6125 25.9368 37.7842 27.2998 39.4187 28.1125C41.1038 28.9409 41.671 29.472 41.6598 30.2213C41.6521 31.3591 40.3165 31.8563 39.0769 31.8754C36.9018 31.9102 35.6416 31.2826 34.6342 30.8089L33.8555 34.5231C34.8612 34.9916 36.7271 35.4028 38.6632 35.4228C43.1967 35.4228 46.1685 33.1445 46.1839 29.6215C46.2019 25.1449 40.087 24.8989 40.1289 22.9023Z" fill="#191F71"/>
<path fill-rule="evenodd" clip-rule="evenodd" d="M54.4565 17.8894C53.6408 17.8894 52.9553 18.3753 52.6504 19.1252L46.293 34.7215H50.746L51.6306 32.2067H57.0539L57.5638 34.7215H61.4935L58.0754 17.8894H54.4565ZM52.847 28.7607L55.1 22.4392L56.3676 28.7607H52.847Z" fill="#191F71"/>
</g>
</svg>
