<svg width="31" height="35" viewBox="0 0 31 35" fill="none" xmlns="http://www.w3.org/2000/svg">
<path d="M30.9949 0.356079H0V34.7215H30.9949V0.356079Z" fill="#1C3378"/>
<path d="M30.0463 23.0503H0.632812V1.32874H30.0463V23.0503Z" fill="white"/>
<path d="M22.7703 5.21912L16.9934 19.484H13.2188L10.3754 8.09728C10.2041 7.39757 10.053 7.14101 9.52988 6.84246C8.66853 6.36432 7.25249 5.91183 6.00781 5.62962L6.09124 5.21912H12.1613C12.9347 5.21912 13.6315 5.7509 13.8073 6.66986L15.3113 14.9242L19.0228 5.21912H22.7703Z" fill="#1C3378"/>
<path fill-rule="evenodd" clip-rule="evenodd" d="M9.29776 25.3197C8.54368 25.3197 7.98933 25.3763 7.58984 25.4533V31.8037H8.69628V29.3768C8.84217 29.4039 9.03518 29.4152 9.24165 29.4152C10.0316 29.4152 10.7296 29.1956 11.174 28.7293C11.5196 28.3829 11.7014 27.878 11.7014 27.269C11.7014 26.6645 11.4658 26.1596 11.1022 25.8449C10.7117 25.5008 10.1147 25.3197 9.29776 25.3197ZM9.24165 28.5006C9.01498 28.5006 8.83319 28.4893 8.69628 28.4508V26.2751C8.81523 26.2457 9.03518 26.2162 9.3404 26.2162C10.1147 26.2162 10.586 26.5988 10.586 27.3142C10.586 28.0682 10.0765 28.5006 9.24165 28.5006Z" fill="white"/>
<path fill-rule="evenodd" clip-rule="evenodd" d="M13.8045 31.8037L14.3323 29.9655H16.275L16.8297 31.8037H18.029L16.0391 25.3197H14.613L12.6523 31.8037H13.8045ZM15.6034 27.475L16.0841 29.0715H14.5142L14.9858 27.475C15.0586 27.2163 15.1242 26.9255 15.1868 26.648C15.2169 26.5144 15.2463 26.3839 15.2755 26.2616H15.2935C15.3141 26.3456 15.3349 26.4328 15.3563 26.5221C15.4307 26.833 15.511 27.1684 15.6034 27.475Z" fill="white"/>
<path d="M20.2682 31.8037V29.0988L18.3438 25.3197H19.6066L20.3398 26.9823C20.5476 27.4658 20.6996 27.8285 20.865 28.2732H20.8806C21.0349 27.8581 21.2092 27.4544 21.4148 26.9823L22.148 25.3197H23.4041L21.3791 29.0715V31.8037H20.2682Z" fill="white"/>
</svg>
