<svg width="180" height="39" viewBox="0 0 180 39" fill="none" xmlns="http://www.w3.org/2000/svg">
<path d="M120.75 0.463124V4.49455L124.438 0.450195H125.588L121.818 4.52903L125.778 8.84488H124.534L120.75 4.75311V8.84488H119.72V0.463124H120.75Z" fill="#FF0000"/>
<path d="M125.686 2.71289H126.741L128.639 7.11063L130.358 2.71289H131.367L127.939 10.9783H126.943L128.116 8.21167L125.686 2.71289Z" fill="#FF0000"/>
<path d="M133.677 8.84519H132.692V2.71292H133.677V8.84519ZM132.516 0.79094C132.516 0.619501 132.584 0.455085 132.707 0.33386C132.83 0.212635 132.996 0.144531 133.169 0.144531C133.343 0.144531 133.509 0.212635 133.632 0.33386C133.754 0.455085 133.823 0.619501 133.823 0.79094C133.823 0.962378 133.754 1.12679 133.632 1.24802C133.509 1.36925 133.343 1.43735 133.169 1.43735C132.996 1.43735 132.83 1.36925 132.707 1.24802C132.584 1.12679 132.516 0.962378 132.516 0.79094Z" fill="#FF0000"/>
<path d="M136.059 2.71289L137.896 7.86046L139.711 2.71289H140.731L138.502 8.84516H137.244L134.991 2.71289H136.059Z" fill="#FF0000"/>
<path d="M119.221 21.053H120.217C120.347 22.0485 120.761 22.8931 122.459 22.8931C123.549 22.8931 124.39 22.2618 124.39 21.3115C124.39 20.3613 123.954 19.9519 122.339 19.7041C120.561 19.424 119.506 18.8961 119.506 17.3965C119.506 16.1187 120.631 15.1211 122.232 15.1211C123.941 15.1211 124.972 15.9291 125.15 17.4288H124.224C124.024 16.3644 123.418 15.942 122.232 15.942C121.047 15.942 120.465 16.5044 120.465 17.3016C120.465 18.0989 120.774 18.5557 122.505 18.8099C124.39 19.09 125.388 19.6718 125.388 21.2469C125.388 22.654 124.141 23.7205 122.459 23.7205C120.195 23.7205 119.375 22.4902 119.221 21.0594" fill="#FF0000"/>
<path d="M126.739 20.6072V20.5146C126.739 18.6379 128.09 17.373 129.75 17.373C131.043 17.373 132.252 17.9591 132.442 19.5277H131.47C131.315 18.5538 130.598 18.1918 129.75 18.1918C128.624 18.1918 127.759 19.0817 127.759 20.5254V20.618C127.759 22.1263 128.589 22.9171 129.785 22.9171C130.657 22.9171 131.47 22.4129 131.563 21.4088H132.477C132.346 22.7339 131.256 23.7186 129.774 23.7186C128.042 23.7186 126.739 22.5228 126.739 20.6116" fill="#FF0000"/>
<path d="M135.022 14.5459V18.4502C135.305 17.8771 135.983 17.3729 137.014 17.3729C138.293 17.3729 139.193 18.0645 139.193 19.8465V23.6107H138.208V19.7753C138.208 18.698 137.746 18.2153 136.75 18.2153C135.837 18.2153 135.02 18.7885 135.02 19.8939V23.6086H134.035V14.5459H135.022Z" fill="#FF0000"/>
<path d="M145.824 20.5965V20.5146C145.824 19.0946 145.031 18.1811 143.797 18.1811C142.564 18.1811 141.768 19.0946 141.768 20.5017V20.5965C141.768 22.0035 142.529 22.9063 143.797 22.9063C145.065 22.9063 145.824 21.9777 145.824 20.5965ZM140.749 20.5965V20.5017C140.749 18.6594 142.041 17.373 143.799 17.373C145.558 17.373 146.85 18.6508 146.85 20.4909V20.5835C146.85 22.4366 145.543 23.7143 143.799 23.7143C142.056 23.7143 140.764 22.3892 140.764 20.5965" fill="#FF0000"/>
<path d="M153.131 20.5965V20.5146C153.131 19.0946 152.336 18.1811 151.102 18.1811C149.869 18.1811 149.076 19.0946 149.076 20.5017V20.5965C149.076 22.0035 149.836 22.9063 151.102 22.9063C152.368 22.9063 153.131 21.9777 153.131 20.5965ZM148.056 20.5965V20.5017C148.056 18.6594 149.348 17.373 151.107 17.373C152.865 17.373 154.157 18.6508 154.157 20.4909V20.5835C154.157 22.4366 152.85 23.7143 151.107 23.7143C149.363 23.7143 148.071 22.3892 148.071 20.5965" fill="#FF0000"/>
<path d="M156.783 14.5459H155.787V23.6086H156.783V14.5459Z" fill="#FF0000"/>
<path d="M166.707 20.5965V20.5146C166.707 19.0946 165.914 18.1811 164.68 18.1811C163.447 18.1811 162.651 19.0946 162.651 20.5017V20.5965C162.651 22.0035 163.412 22.9063 164.68 22.9063C165.949 22.9063 166.707 21.9777 166.707 20.5965ZM161.634 20.5965V20.5017C161.634 18.6594 162.926 17.373 164.685 17.373C166.443 17.373 167.736 18.6508 167.736 20.4909V20.5835C167.736 22.4366 166.428 23.7143 164.685 23.7143C162.941 23.7143 161.649 22.3892 161.649 20.5965" fill="#FF0000"/>
<path d="M168.553 18.2974V17.4764H169.442V16.481C169.442 15.2269 170.059 14.5116 171.292 14.5116C171.542 14.5044 171.791 14.5446 172.026 14.6301V15.4489C171.805 15.358 171.567 15.314 171.327 15.3196C170.673 15.3196 170.425 15.7505 170.425 16.3754V17.4764H171.95V18.2974H170.425V23.6088H169.442V18.2974H168.553Z" fill="#FF0000"/>
<path d="M124.664 29.9893V30.8231H120.75V33.6716H123.904V34.5033H120.75V37.5393H124.876V38.3732H119.72V29.9893H124.664Z" fill="#FF0000"/>
<path d="M125.817 35.3719V35.2792C125.817 33.4003 127.168 32.1377 128.829 32.1377C130.121 32.1377 131.33 32.7216 131.52 34.2816H130.548C130.393 33.3077 129.676 32.9436 128.829 32.9436C127.702 32.9436 126.837 33.8356 126.837 35.2792V35.3719C126.837 36.8802 127.667 37.6688 128.863 37.6688C129.735 37.6688 130.548 37.1646 130.644 36.1605H131.555C131.424 37.4835 130.334 38.4703 128.852 38.4703C127.12 38.4703 125.817 37.2745 125.817 35.3633" fill="#FF0000"/>
<path d="M137.78 35.3582V35.2763C137.78 33.8585 136.985 32.9428 135.752 32.9428C134.518 32.9428 133.725 33.8585 133.725 35.2655V35.3582C133.725 36.7652 134.483 37.668 135.752 37.668C137.02 37.668 137.78 36.7437 137.78 35.3582ZM132.705 35.3582V35.2655C132.705 33.4254 133.997 32.1348 135.756 32.1348C137.515 32.1348 138.807 33.4125 138.807 35.2526V35.3474C138.807 37.2005 137.499 38.476 135.756 38.476C134.013 38.476 132.712 37.1531 132.712 35.3582" fill="#FF0000"/>
<path d="M141.396 32.2411V33.215C141.679 32.6419 142.355 32.1377 143.388 32.1377C144.667 32.1377 145.567 32.8272 145.567 34.6091V38.3734H144.582V34.538C144.582 33.4607 144.12 32.9802 143.124 32.9802C142.211 32.9802 141.394 33.5555 141.394 34.6565V38.3734H140.409V32.2411H141.396Z" fill="#FF0000"/>
<path d="M152.196 35.3582V35.2763C152.196 33.8585 151.401 32.9428 150.169 32.9428C148.938 32.9428 148.14 33.8585 148.14 35.2655V35.3582C148.14 36.7652 148.899 37.668 150.169 37.668C151.44 37.668 152.196 36.7437 152.196 35.3582ZM147.121 35.3582V35.2655C147.121 33.4254 148.413 32.1348 150.171 32.1348C151.93 32.1348 153.222 33.4125 153.222 35.2526V35.3474C153.222 37.2005 151.915 38.476 150.171 38.476C148.428 38.476 147.136 37.1531 147.136 35.3582" fill="#FF0000"/>
<path d="M155.811 32.2407V33.1823C155.989 32.8543 156.257 32.5824 156.585 32.398C156.912 32.2135 157.285 32.1239 157.661 32.1394C158.468 32.1394 159.154 32.4562 159.475 33.2857C159.889 32.5014 160.852 32.1394 161.597 32.1394C162.7 32.1394 163.685 32.7858 163.685 34.5764V38.3751H162.7V34.4967C162.7 33.4193 162.238 32.9733 161.392 32.9733C161.173 32.966 160.955 33.0035 160.752 33.0836C160.549 33.1638 160.364 33.2846 160.21 33.4387C160.057 33.5928 159.937 33.7766 159.858 33.9787C159.78 34.1808 159.745 34.3969 159.756 34.613V38.3665H158.771V34.488C158.771 33.4107 158.311 32.9647 157.463 32.9647C157.244 32.9573 157.026 32.9948 156.823 33.075C156.62 33.1551 156.435 33.276 156.281 33.4301C156.128 33.5841 156.008 33.7679 155.929 33.97C155.851 34.1722 155.816 34.3883 155.827 34.6044V38.3579H154.844V32.2407H155.811Z" fill="#FF0000"/>
<path d="M166.642 38.3735H165.659V32.2412H166.642V38.3735ZM165.482 30.3192C165.482 30.1915 165.521 30.0665 165.592 29.9601C165.664 29.8538 165.767 29.7709 165.886 29.722C166.005 29.6731 166.137 29.6603 166.264 29.6853C166.39 29.7101 166.507 29.7717 166.598 29.8622C166.69 29.9525 166.752 30.0678 166.777 30.1932C166.803 30.3186 166.79 30.4485 166.74 30.5666C166.691 30.6847 166.607 30.7857 166.499 30.8566C166.392 30.9277 166.265 30.9657 166.136 30.9657C165.963 30.9657 165.796 30.8976 165.674 30.7763C165.551 30.6552 165.482 30.4908 165.482 30.3192Z" fill="#FF0000"/>
<path d="M168.232 35.3719V35.2792C168.232 33.4003 169.584 32.1377 171.244 32.1377C172.536 32.1377 173.746 32.7216 173.935 34.2816H172.963C172.809 33.3077 172.092 32.9436 171.244 32.9436C170.117 32.9436 169.252 33.8356 169.252 35.2792V35.3719C169.252 36.8802 170.083 37.6688 171.279 37.6688C172.151 37.6688 172.963 37.1646 173.057 36.1605H173.97C173.842 37.4835 172.75 38.4704 171.268 38.4704C169.54 38.479 168.232 37.2767 168.232 35.3719Z" fill="#FF0000"/>
<path d="M175.116 36.4853H176.077C176.16 37.2222 176.539 37.6682 177.535 37.6682C178.485 37.6682 178.886 37.3515 178.886 36.6965C178.886 36.0414 178.4 35.8346 177.442 35.6644C175.829 35.3842 175.282 34.9253 175.282 33.8566C175.282 32.734 176.398 32.1328 177.381 32.1328C178.485 32.1328 179.468 32.5637 179.623 33.9018H178.675C178.531 33.2339 178.165 32.9387 177.367 32.9387C176.657 32.9387 176.193 33.292 176.193 33.8199C176.193 34.3478 176.502 34.6042 177.64 34.7917C178.921 35.0503 179.819 35.2959 179.819 36.6103C179.819 37.735 179.059 38.4741 177.542 38.4741C176.06 38.4741 175.169 37.7458 175.11 36.481" fill="#FF0000"/>
<path d="M105.22 0.476562H104.232V38.4229H105.22V0.476562Z" fill="#FF0000"/>
<path d="M30.9574 0.762564C28.3293 2.35488 23.0361 6.93145 17.2634 12.4367C16.7295 12.0058 17.5533 12.6694 17.0194 12.2428C20.0484 6.98963 22.5785 1.10732 22.7528 0.475989H30.8746C30.9596 0.766873 30.8746 0.475989 30.9574 0.762564ZM15.0211 14.7853C16.5029 17.3343 27.7409 31.9711 33.9363 38.4223H23.9121C20.1835 33.3264 10.7542 21.1848 9.2201 19.892L15.0211 14.7853ZM8.06295 0.475989C7.89952 4.54189 7.79056 11.4262 7.79056 19.2218C7.79056 25.2398 7.84504 34.7356 8.06295 38.4136H0C0.217918 36.1447 0.383535 28.3921 0.383535 19.823C0.383535 13.1564 0.274576 6.00062 0 0.47168L8.06295 0.475989Z" fill="#FF0000"/>
<path d="M57.7874 5.76597C56.4945 3.36294 54.4409 1.44508 51.9407 0.305967C52.0584 -0.176685 51.8971 0.482652 52.017 0L59.0993 0.476188L58.0904 5.72072L57.7874 5.76597ZM44.9826 38.8858L36.5688 38.3127L37.7826 31.2582L38.092 31.2259C39.2601 34.139 41.679 37.1491 45.0654 38.582L44.9913 38.8858H44.9826ZM42.324 6.92735C42.324 11.0471 45.6146 12.9433 49.0686 14.5162C55.7565 17.4983 60.7446 20.5881 60.7446 27.634C60.7446 33.4861 56.918 38.1381 50.1669 38.8643C49.9664 37.9356 50.2998 39.4827 50.0993 38.554C53.7625 37.4012 55.4819 34.9104 55.4819 31.59C55.4819 27.3086 52.4114 25.1949 47.3688 22.7557C41.1189 19.6077 36.2397 16.7937 36.2397 10.3964C36.2397 4.83729 40.2189 0.665801 47.3536 0.021547C47.5366 0.945912 47.2337 -0.599006 47.4146 0.325359C43.9279 1.38547 42.3262 3.83105 42.3262 6.92735" fill="#FF0000"/>
<path d="M89.6601 31.2857V38.4221H78.9036C78.8143 37.9201 78.9363 38.6117 78.8492 38.1097C82.7717 36.666 87.2978 33.6171 89.3746 31.1802L89.6601 31.2857ZM88.5073 0.473633V6.89463L88.2196 6.9959C86.1211 4.37363 82.107 1.8354 78.5179 0.790373C78.6073 0.143963 78.4722 1.11573 78.5615 0.475788L88.5073 0.473633ZM86.6986 15.6621V21.7857L86.4414 21.9128C83.8155 20.0318 80.7756 19.2755 77.8424 18.6528C77.8424 18.2025 77.8424 18.7929 77.8424 18.3404C81.1111 17.7952 84.393 16.7114 86.4501 15.5263L86.692 15.6621H86.6986ZM75.1816 0.475788C75.016 6.05861 74.907 12.3999 74.907 20.2085C74.907 26.2244 75.016 35.7223 75.1816 38.4221H67.1187C67.3366 36.1446 67.5022 28.392 67.5022 19.8271C67.5022 13.1605 67.391 6.00474 67.1187 0.475788H75.1816Z" fill="#FF0000"/>
</svg>
